# xmcd
#
# Track frame offsets: 
#        150
#        9846
#        19514
#        30262
#        39993
#        50093
#        62025
#        74877
#        84023
#        94541
#        103896
#        114658
#        126110
#        136976
#        147216
#        158633
#        170530
#        180888
#        190939
#        203442
#        213814
#        224471
#        235317
#        247681
#
# Disc length: 3441 seconds
#
# Revision: 0
# Processed by: cddbd v1.5.2PL0 Copyright (c) Steve Scherf et al.
# Submitted via: ExactAudioCopyFreeDBPlugin 1.0
#
DISCID=370d6f18
DTITLE=Jean Shepard - Lonesome Love and This Is Jean Shepard
DYEAR=2011
DGENRE=Country
TTITLE0=A Thief In The Night
TTITLE1=I'll Hold You In My Heart
TTITLE2=The Weak And The Strong
TTITLE3=You'd Better Go
TTITLE4=Sweet Temptation
TTITLE5=I'll Never Be Free
TTITLE6=You Win Again
TTITLE7=I Hate Myself
TTITLE8=You're Telling Me Sweet Lies Again
TTITLE9=Memory
TTITLE10=You Can't Break The Chains Of Love
TTITLE11=I Love You Because
TTITLE12=A Satisfied Mind
TTITLE13=Two Whoops And A Holler
TTITLE14=I'd Rather Die Young
TTITLE15=Why Did You Wait
TTITLE16=The Other Woman
TTITLE17=Act Like A Married Man
TTITLE18=Beautiful Lies
TTITLE19=You're Calling Me Sweetheart Again
TTITLE20=Under Suspicion
TTITLE21=Crying Steel Guitar
TTITLE22=My Wedding Ring
TTITLE23=I Learned It All From You
EXTD=
EXTT0=
EXTT1=
EXTT2=
EXTT3=
EXTT4=
EXTT5=
EXTT6=
EXTT7=
EXTT8=
EXTT9=
EXTT10=
EXTT11=
EXTT12=
EXTT13=
EXTT14=
EXTT15=
EXTT16=
EXTT17=
EXTT18=
EXTT19=
EXTT20=
EXTT21=
EXTT22=
EXTT23=
PLAYORDER=
